<?xml version="1.0" encoding="UTF-8"?>
<svg width="151px" height="33px" viewBox="0 0 151 33" version="1.1" xmlns="http://www.w3.org/2000/svg" xmlns:xlink="http://www.w3.org/1999/xlink">
    <!-- Generator: Sketch 51.3 (57544) - http://www.bohemiancoding.com/sketch -->
    <title>todastic-logo</title>
    <desc>Created with Sketch.</desc>
    <defs>
        <filter x="-12.5%" y="-9.1%" width="137.5%" height="127.3%" filterUnits="objectBoundingBox" id="filter-1">
            <feOffset dx="1" dy="1" in="SourceAlpha" result="shadowOffsetOuter1"></feOffset>
            <feGaussianBlur stdDeviation="0.5" in="shadowOffsetOuter1" result="shadowBlurOuter1"></feGaussianBlur>
            <feColorMatrix values="0 0 0 0 0   0 0 0 0 0   0 0 0 0 0  0 0 0 0.5 0" type="matrix" in="shadowBlurOuter1" result="shadowMatrixOuter1"></feColorMatrix>
            <feMerge>
                <feMergeNode in="shadowMatrixOuter1"></feMergeNode>
                <feMergeNode in="SourceGraphic"></feMergeNode>
            </feMerge>
        </filter>
    </defs>
    <g id="Logo" stroke="none" stroke-width="1" fill="none" fill-rule="evenodd">
        <g id="todastic-logo" transform="translate(1.000000, 0.000000)">
            <path d="M45.3085938,12.09375 L45.7382812,13.8515625 C45.0351527,13.9036461 43.9544344,14.0403635 42.4960938,14.2617188 C41.0377531,14.483074 39.9440141,14.6197914 39.2148438,14.671875 C39.3450527,15.5833379 39.423177,16.7812426 39.4492188,18.265625 C39.4752605,19.7500074 39.5078123,21.0325467 39.546875,22.1132812 C39.5859377,23.1940158 39.703124,24.2747342 39.8984375,25.3554688 C40.093751,26.4362033 40.4973928,27.263018 41.109375,27.8359375 C41.7213572,28.408857 42.5481719,28.6953125 43.5898438,28.6953125 C44.3710977,28.6953125 45.3476504,28.5130227 46.5195312,28.1484375 C47.0143254,29.111984 47.3789051,29.815102 47.6132812,30.2578125 C45.5559793,30.9869828 43.4726668,31.3515625 41.3632812,31.3515625 C40.5820273,31.3515625 39.9049508,31.1171898 39.3320312,30.6484375 C38.7591117,30.1796852 38.3164078,29.5937535 38.0039062,28.890625 C37.6914047,28.1874965 37.437501,27.2955783 37.2421875,26.2148438 C37.046874,25.1341092 36.9231773,24.111984 36.8710938,23.1484375 C36.8190102,22.184891 36.7929688,21.0781313 36.7929688,19.828125 C36.7929688,19.1510383 36.7994791,18.2135477 36.8125,17.015625 C36.8255209,15.8177023 36.8320312,14.997398 36.8320312,14.5546875 C36.5716133,14.5807293 35.9596402,14.6002604 34.9960938,14.6132812 C34.0325473,14.6263021 33.472657,14.6328125 33.3164062,14.6328125 C33.1341137,12.8880121 33.0429688,11.9895836 33.0429688,11.9375 C33.2252613,11.9895836 33.5247375,12.015625 33.9414062,12.015625 C34.1757824,12.015625 34.5533828,11.9960939 35.0742188,11.9570312 C35.5950547,11.9179686 35.9856758,11.8984375 36.2460938,11.8984375 C36.3502609,11.8984375 36.4869783,11.9049479 36.65625,11.9179688 C36.8255217,11.9309896 36.9361977,11.9375 36.9882812,11.9375 C37.0924484,9.07290234 37.2096348,6.74219648 37.3398438,4.9453125 L39.0976562,5.375 C39.123698,6.00000312 39.1432291,6.67056934 39.15625,7.38671875 C39.1692709,8.10286816 39.1822916,8.89713105 39.1953125,9.76953125 C39.2083334,10.6419314 39.2148438,11.3124977 39.2148438,11.78125 C39.8919305,11.8333336 40.9075453,11.8854164 42.2617188,11.9375 C43.6158922,11.9895836 44.631507,12.0416664 45.3085938,12.09375 Z M47.5351562,22.6796875 C47.5351562,21.6380156 47.6458322,20.479173 47.8671875,19.203125 C48.0885428,17.927077 48.4205707,16.5859445 48.8632812,15.1796875 C49.3059918,13.7734305 49.9700477,12.6015672 50.8554688,11.6640625 C51.7408898,10.7265578 52.7695254,10.2578125 53.9414062,10.2578125 C56.4414187,10.2578125 58.446607,11.3841033 59.9570312,13.6367188 C61.4674555,15.8893342 62.2226562,18.3958195 62.2226562,21.15625 C62.2226562,22.3281309 62.0989596,23.4934838 61.8515625,24.6523438 C61.6041654,25.8112037 61.2200547,26.9505152 60.6992188,28.0703125 C60.1783828,29.1901098 59.4296924,30.12109 58.453125,30.8632812 C57.4765576,31.6054725 56.3372461,32.0286453 55.0351562,32.1328125 C52.6393109,31.8203109 50.7903711,30.7981857 49.4882812,29.0664062 C48.1861914,27.3346268 47.5351562,25.2057418 47.5351562,22.6796875 Z M54.1757812,12.2890625 C53.2643184,12.3932297 52.4960969,13.2265547 51.8710938,14.7890625 C51.2460906,16.3515703 50.8424488,17.8684822 50.6601562,19.3398438 C50.4778637,20.8112053 50.3867188,22.1067652 50.3867188,23.2265625 C50.3867188,24.6849031 50.835933,26.0325459 51.734375,27.2695312 C52.632817,28.5065166 53.6419215,29.125 54.7617188,29.125 C55.5690145,29.125 56.2981738,28.8125031 56.9492188,28.1875 C57.6002637,27.5624969 58.1145814,26.787765 58.4921875,25.8632812 C58.8697936,24.9387975 59.156249,24.0078172 59.3515625,23.0703125 C59.546876,22.1328078 59.6445312,21.2994828 59.6445312,20.5703125 C59.6445312,18.4348852 59.1627652,16.5729246 58.1992188,14.984375 C57.2356723,13.3958254 55.8945398,12.4973969 54.1757812,12.2890625 Z M79.4492188,32.015625 L77.3007812,31.5859375 C77.3007812,31.0651016 77.2877605,30.6744805 77.2617188,30.4140625 C75.8815035,31.2994836 74.4231848,31.7421875 72.8867188,31.7421875 C70.5169152,31.7421875 68.6744857,30.7265727 67.359375,28.6953125 C66.0442643,26.6640523 65.3867188,24.3593879 65.3867188,21.78125 C65.3867188,20.4531184 65.484374,19.2031309 65.6796875,18.03125 C65.875001,16.8593691 66.2135393,15.6549541 66.6953125,14.4179688 C67.1770857,13.1809834 67.9322865,12.1979203 68.9609375,11.46875 C69.9895885,10.7395797 71.2330656,10.375 72.6914062,10.375 C74.1237051,10.375 75.4648375,10.726559 76.7148438,11.4296875 C76.9231781,8.66925703 77.0273438,5.88282656 77.0273438,3.0703125 C77.0273438,1.79426445 77.014323,0.856773828 76.9882812,0.2578125 C78.2382875,0.492188672 79.2278609,0.791664844 79.9570312,1.15625 L79.4492188,32.015625 Z M76.9492188,27.8359375 L76.8320312,15.2578125 C76.5195297,14.6067676 76.0312533,14.0924498 75.3671875,13.7148438 C74.7031217,13.3372377 73.9934934,13.1484375 73.2382812,13.1484375 C72.2226512,13.1484375 71.3567744,13.4739551 70.640625,14.125 C69.9244756,14.7760449 69.4166682,15.6419217 69.1171875,16.7226562 C68.8177068,17.8033908 68.6093756,18.8124953 68.4921875,19.75 C68.3749994,20.6875047 68.3164062,21.6770781 68.3164062,22.71875 C68.3164062,27.1458555 69.8007664,29.359375 72.7695312,29.359375 C73.7591195,29.359375 74.6640584,29.2226576 75.484375,28.9492188 C76.3046916,28.6757799 76.792968,28.3046898 76.9492188,27.8359375 Z M84.5273438,14.125 L83.7460938,12.1328125 C84.4231805,11.4557258 85.2825469,10.9153666 86.3242188,10.5117188 C87.3658906,10.1080709 88.3945262,9.90625 89.4101562,9.90625 C93.8112199,9.90625 96.0117188,13.7082953 96.0117188,21.3125 C96.0117188,22.3541719 95.9531256,23.8906148 95.8359375,25.921875 C95.7187494,27.9531352 95.6601562,29.4765574 95.6601562,30.4921875 C95.4518219,31.2994832 95.0481801,31.703125 94.4492188,31.703125 C93.9804664,31.703125 93.5507832,31.4687523 93.1601562,31 C92.7695293,30.5312477 92.5742188,30.0104195 92.5742188,29.4375 C92.5742188,29.2552074 92.5872395,29.1250004 92.6132812,29.046875 C90.9986898,30.6093828 89.279957,31.390625 87.4570312,31.390625 C86.076816,31.390625 84.872401,30.8893279 83.84375,29.8867188 C82.815099,28.8841096 82.3007812,27.6666738 82.3007812,26.234375 C82.3007812,23.8124879 83.2447822,21.6250098 85.1328125,19.671875 C87.0208428,17.7187402 89.1627484,16.7421875 91.5585938,16.7421875 C91.6627609,16.7421875 91.7669266,16.7486979 91.8710938,16.7617188 C91.9752609,16.7747396 92.0989576,16.7942707 92.2421875,16.8203125 C92.3854174,16.8463543 92.4960934,16.859375 92.5742188,16.859375 C92.3658844,13.8124848 91.154959,12.2890625 88.9414062,12.2890625 C87.6393164,12.2890625 86.167977,12.9010355 84.5273438,14.125 Z M92.6914062,26.3515625 C92.7434898,24.5286367 92.7695312,23.1484422 92.7695312,22.2109375 C92.7695312,21.4296836 92.7434898,20.3359445 92.6914062,18.9296875 L92.3789062,18.9296875 C90.5299387,18.9557293 88.8437576,19.6458266 87.3203125,21 C85.7968674,22.3541734 85.0351562,23.994782 85.0351562,25.921875 C85.0351562,26.7552125 85.28906,27.4192684 85.796875,27.9140625 C86.30469,28.4088566 86.9231734,28.65625 87.6523438,28.65625 C88.7981828,28.65625 90.4778535,27.8880285 92.6914062,26.3515625 Z M111.207031,12.171875 L110.816406,13.734375 C108.290352,12.6927031 106.324226,12.171875 104.917969,12.171875 C103.667963,12.171875 102.789065,12.3606752 102.28125,12.7382812 C101.773435,13.1158873 101.519531,13.9166605 101.519531,15.140625 C101.519531,16.1302133 101.877601,16.9505176 102.59375,17.6015625 C103.309899,18.2526074 104.175776,18.7669252 105.191406,19.1445312 C106.207036,19.5221373 107.229162,19.9257791 108.257812,20.3554688 C109.286463,20.7851584 110.158851,21.4166625 110.875,22.25 C111.591149,23.0833375 111.949219,24.111973 111.949219,25.3359375 C111.949219,27.0026125 111.337246,28.4609312 110.113281,29.7109375 C108.889317,30.9609437 107.300791,31.5989582 105.347656,31.625 C103.915357,31.625 102.574225,31.3255238 101.324219,30.7265625 C100.074213,30.1276012 99.0846391,29.3724004 98.3554688,28.4609375 L99.4882812,27.2890625 C99.8007828,27.4192715 100.263018,27.6276027 100.875,27.9140625 C101.486982,28.2005223 101.923176,28.3893225 102.183594,28.4804688 C102.444012,28.571615 102.828122,28.6692703 103.335938,28.7734375 C103.843753,28.8776047 104.384112,28.9296875 104.957031,28.9296875 C106.180996,28.9296875 107.18359,28.6562527 107.964844,28.109375 C108.746098,27.5624973 109.136719,26.7942758 109.136719,25.8046875 C109.136719,25.1536426 108.954429,24.6002627 108.589844,24.1445312 C108.225259,23.6887998 107.743493,23.3177098 107.144531,23.03125 C106.54557,22.7447902 105.888024,22.4713555 105.171875,22.2109375 C104.455726,21.9505195 103.739587,21.6575537 103.023438,21.3320312 C102.307288,21.0065088 101.649743,20.6158877 101.050781,20.1601562 C100.45182,19.7044248 99.9700539,19.0859414 99.6054688,18.3046875 C99.2408836,17.5234336 99.0585938,16.5989637 99.0585938,15.53125 C99.0585938,13.9687422 99.4817666,12.6601615 100.328125,11.6054688 C101.174483,10.550776 102.365878,10.0234375 103.902344,10.0234375 C104.501305,10.0234375 105.178382,10.1145824 105.933594,10.296875 C106.688806,10.4791676 107.287758,10.6484367 107.730469,10.8046875 C108.173179,10.9609383 108.830725,11.214842 109.703125,11.5664062 C110.575525,11.9179705 111.076822,12.1197914 111.207031,12.171875 Z M124.996094,12.09375 L125.425781,13.8515625 C124.722653,13.9036461 123.641934,14.0403635 122.183594,14.2617188 C120.725253,14.483074 119.631514,14.6197914 118.902344,14.671875 C119.032553,15.5833379 119.110677,16.7812426 119.136719,18.265625 C119.162761,19.7500074 119.195312,21.0325467 119.234375,22.1132812 C119.273438,23.1940158 119.390624,24.2747342 119.585938,25.3554688 C119.781251,26.4362033 120.184893,27.263018 120.796875,27.8359375 C121.408857,28.408857 122.235672,28.6953125 123.277344,28.6953125 C124.058598,28.6953125 125.03515,28.5130227 126.207031,28.1484375 C126.701825,29.111984 127.066405,29.815102 127.300781,30.2578125 C125.243479,30.9869828 123.160167,31.3515625 121.050781,31.3515625 C120.269527,31.3515625 119.592451,31.1171898 119.019531,30.6484375 C118.446612,30.1796852 118.003908,29.5937535 117.691406,28.890625 C117.378905,28.1874965 117.125001,27.2955783 116.929688,26.2148438 C116.734374,25.1341092 116.610677,24.111984 116.558594,23.1484375 C116.50651,22.184891 116.480469,21.0781313 116.480469,19.828125 C116.480469,19.1510383 116.486979,18.2135477 116.5,17.015625 C116.513021,15.8177023 116.519531,14.997398 116.519531,14.5546875 C116.259113,14.5807293 115.64714,14.6002604 114.683594,14.6132812 C113.720047,14.6263021 113.160157,14.6328125 113.003906,14.6328125 C112.821614,12.8880121 112.730469,11.9895836 112.730469,11.9375 C112.912761,11.9895836 113.212238,12.015625 113.628906,12.015625 C113.863282,12.015625 114.240883,11.9960939 114.761719,11.9570312 C115.282555,11.9179686 115.673176,11.8984375 115.933594,11.8984375 C116.037761,11.8984375 116.174478,11.9049479 116.34375,11.9179688 C116.513022,11.9309896 116.623698,11.9375 116.675781,11.9375 C116.779948,9.07290234 116.897135,6.74219648 117.027344,4.9453125 L118.785156,5.375 C118.811198,6.00000312 118.830729,6.67056934 118.84375,7.38671875 C118.856771,8.10286816 118.869792,8.89713105 118.882812,9.76953125 C118.895833,10.6419314 118.902344,11.3124977 118.902344,11.78125 C119.57943,11.8333336 120.595045,11.8854164 121.949219,11.9375 C123.303392,11.9895836 124.319007,12.0416664 124.996094,12.09375 Z M129.722656,10.921875 L131.519531,11.3125 C131.727866,13.4479273 131.910155,16.8007584 132.066406,21.3710938 C132.222657,25.9414291 132.326823,28.773432 132.378906,29.8671875 C132.14453,30.6744832 131.688805,31.078125 131.011719,31.078125 C130.542966,31.078125 130.093752,30.8893248 129.664062,30.5117188 C129.234373,30.1341127 128.967448,29.6718777 128.863281,29.125 C128.915365,28.0572863 129.01953,25.2773662 129.175781,20.7851562 C129.332032,16.2929463 129.514322,13.0052188 129.722656,10.921875 Z M130.269531,3.9296875 C130.97266,3.9296875 131.558591,4.23567402 132.027344,4.84765625 C132.496096,5.45963848 132.730469,6.15624609 132.730469,6.9375 C132.730469,7.51041953 132.593751,7.97265449 132.320312,8.32421875 C132.046874,8.67578301 131.675784,8.8515625 131.207031,8.8515625 C130.477861,8.8515625 129.90495,8.55208633 129.488281,7.953125 C129.071613,7.35416367 128.863281,6.6510457 128.863281,5.84375 C128.863281,5.27083047 128.986978,4.80859551 129.234375,4.45703125 C129.481772,4.10546699 129.826821,3.9296875 130.269531,3.9296875 Z M149.097656,11.625 L148.902344,13.3046875 C147.808588,13.1484367 146.871098,13.0703125 146.089844,13.0703125 C144.29296,13.0703125 142.8086,13.6106717 141.636719,14.6914062 C140.464838,15.7721408 139.664065,17.0481697 139.234375,18.5195312 C138.804685,19.9908928 138.589844,21.624991 138.589844,23.421875 C138.589844,24.2552125 138.641927,24.9973926 138.746094,25.6484375 C138.850261,26.2994824 139.039061,26.9374969 139.3125,27.5625 C139.585939,28.1875031 140.015622,28.6757795 140.601562,29.0273438 C141.187503,29.378908 141.910152,29.5546875 142.769531,29.5546875 C143.91537,29.5546875 145.373689,29.3333355 147.144531,28.890625 C147.691409,28.6822906 148.121092,28.578125 148.433594,28.578125 C149.058597,28.578125 149.436197,29.3072844 149.566406,30.765625 C147.274728,31.4947953 145.152354,31.859375 143.199219,31.859375 C140.360663,31.859375 138.440109,31.1627674 137.4375,29.7695312 C136.434891,28.3762951 135.933594,26.1172031 135.933594,22.9921875 C135.933594,21.1692617 136.05729,19.5742256 136.304688,18.2070312 C136.552085,16.8398369 136.988278,15.563808 137.613281,14.3789062 C138.238284,13.1940045 139.143223,12.2890656 140.328125,11.6640625 C141.513027,11.0390594 142.964835,10.7265625 144.683594,10.7265625 C146.610687,10.7265625 148.082026,11.0260387 149.097656,11.625 Z" id="todastic" fill="#48BA1F"></path>
            <g id="status" stroke-width="1" transform="translate(0.000000, 10.000000)" fill="#FFFFFF" stroke="#757575">
                <path d="M1.07524725,2.24561509 C-0.00785212965,4.05330703 1.54871163,19.2122354 2.59934573,20.0563027 C3.64997983,20.9003699 19.0790449,21.6523489 20.3425127,20.0563027 C21.6059805,18.4602564 22.42522,0.769371094 21.7677308,0.259222493 C21.1102416,-0.250926109 2.15834663,0.437923144 1.07524725,2.24561509 Z" id="Path-2" stroke-width="2" fill-rule="nonzero"></path>
            </g>
            <g id="tick" filter="url(#filter-1)" stroke-width="1" transform="translate(5.000000, 6.000000)">
                <path d="M0,15.3834655 C0.725060796,17.3843012 4.82137755,21.2415139 5.78388192,21.2415139 C6.74638629,21.2415139 12.7084893,1.34717403 15.1294174,0" id="Path-3" stroke="#101010" stroke-width="2" fill-rule="nonzero"></path>
                <path d="M14.4605018,1.01809409 C12.7142004,2.91777617 7.36037835,22.0215802 5.92526554,21.6859133" id="Path-4" stroke="#000000" fill-rule="nonzero"></path>
            </g>
        </g>
    </g>
</svg>