<?xml version="1.0" encoding="UTF-8"?>
<svg width="48px" height="48px" viewBox="0 0 48 48" version="1.1" xmlns="http://www.w3.org/2000/svg" xmlns:xlink="http://www.w3.org/1999/xlink">
    <!-- Generator: Sketch 52.2 (67145) - http://www.bohemiancoding.com/sketch -->
    <title>icon/calendar</title>
    <desc>Created with Sketch.</desc>
    <g id="icon/calendar" stroke="none" stroke-width="1" fill="none" fill-rule="evenodd">
        <g id="calendar" fill-rule="nonzero">
            <rect id="Rectangle" stroke="currentColor" stroke-width="4" x="2" y="2" width="44" height="44" rx="8"></rect>
            <rect id="Rectangle" fill="currentColor" x="3" y="4" width="42" height="11"></rect>
        </g>
        <g id="days" transform="translate(8.000000, 18.000000)" fill="currentColor" fill-rule="nonzero">
            <rect id="Rectangle" x="0" y="0" width="2" height="2"></rect>
            <rect id="Rectangle" x="5" y="0" width="2" height="2"></rect>
            <rect id="Rectangle" x="10" y="0" width="2" height="2"></rect>
            <rect id="Rectangle" x="15" y="0" width="2" height="2"></rect>
            <rect id="Rectangle" x="20" y="0" width="2" height="2"></rect>
            <rect id="Rectangle" x="0" y="5" width="2" height="2"></rect>
            <rect id="Rectangle" x="5" y="5" width="2" height="2"></rect>
            <rect id="Rectangle" x="10" y="5" width="2" height="2"></rect>
            <rect id="Rectangle" x="15" y="5" width="2" height="2"></rect>
            <rect id="Rectangle" x="20" y="5" width="2" height="2"></rect>
            <rect id="Rectangle" x="0" y="10" width="2" height="2"></rect>
            <rect id="Rectangle" x="5" y="10" width="2" height="2"></rect>
            <rect id="Rectangle" x="10" y="10" width="2" height="2"></rect>
            <rect id="Rectangle" x="15" y="10" width="2" height="2"></rect>
            <rect id="Rectangle" x="20" y="10" width="2" height="2"></rect>
            <rect id="Rectangle" x="25" y="10" width="2" height="2"></rect>
            <rect id="Rectangle" x="30" y="10" width="2" height="2"></rect>
            <rect id="Rectangle" x="0" y="15" width="2" height="2"></rect>
            <rect id="Rectangle" x="5" y="15" width="2" height="2"></rect>
            <rect id="Rectangle" x="10" y="15" width="2" height="2"></rect>
            <rect id="Rectangle" x="15" y="15" width="2" height="2"></rect>
            <rect id="Rectangle" x="20" y="15" width="2" height="2"></rect>
            <rect id="Rectangle" x="25" y="15" width="2" height="2"></rect>
            <rect id="Rectangle" x="30" y="15" width="2" height="2"></rect>
            <rect id="Rectangle" x="0" y="20" width="2" height="2"></rect>
            <rect id="Rectangle" x="5" y="20" width="2" height="2"></rect>
            <rect id="Rectangle" x="10" y="20" width="2" height="2"></rect>
            <rect id="Rectangle" x="15" y="20" width="2" height="2"></rect>
            <rect id="Rectangle" x="20" y="20" width="2" height="2"></rect>
            <rect id="Rectangle" x="25" y="20" width="2" height="2"></rect>
            <rect id="Rectangle" x="30" y="20" width="2" height="2"></rect>
        </g>
        <path d="M32.5390625,25.9648438 L32.5390625,25.34375 C32.7265634,25.3203124 32.958983,25.2812503 33.2363281,25.2265625 C33.5136733,25.1718747 33.730468,25.1328126 33.8867188,25.109375 C33.9101564,24.5468722 33.921875,23.9804716 33.921875,23.4101562 C33.921875,23.0507795 33.9179688,22.5097692 33.9101562,21.7871094 C33.9023437,21.0644495 33.8984375,20.5195331 33.8984375,20.1523438 C33.8984375,19.2851519 33.9101561,18.6289085 33.9335938,18.1835938 C33.2226527,18.5898458 32.7031266,18.9179675 32.375,19.1679688 L32,18.78125 C32.1250006,18.679687 32.3398422,18.5019544 32.6445312,18.2480469 C32.9492203,17.9941394 33.222655,17.7636729 33.4648438,17.5566406 C33.7070325,17.3496083 33.8945306,17.1796882 34.0273438,17.046875 C34.1523444,17.0625001 34.2812493,17.0722656 34.4140625,17.0761719 C34.5468757,17.0800781 34.6757806,17.0898437 34.8007812,17.1054688 C34.8476565,18.0117233 34.8710938,19.6718629 34.8710938,22.0859375 C34.8710938,23.5234447 34.8828124,24.5546844 34.90625,25.1796875 C34.9765629,25.1875 35.146483,25.2167966 35.4160156,25.2675781 C35.6855482,25.3183596 35.8945305,25.3515624 36.0429688,25.3671875 L36.2304688,25.9882812 L34.0566406,25.9882812 C33.5761695,25.9882812 33.2011732,25.9863281 32.9316406,25.9824219 C32.662108,25.9785156 32.53125,25.9726563 32.5390625,25.9648438 Z M40.625,25.1914062 L40.9882812,25.9648438 C40.4023408,25.9804688 39.4843812,25.9902344 38.234375,25.9941406 C36.9843688,25.9980469 36.3203129,26 36.2421875,26 C36.2421875,25.9374997 36.2402344,25.8281258 36.2363281,25.671875 C36.2324219,25.5156242 36.2304688,25.3906255 36.2304688,25.296875 C36.378907,25.0390612 36.6249983,24.7285174 36.96875,24.3652344 C37.3125017,24.0019513 37.6562483,23.6464861 38,23.2988281 C38.3437517,22.9511701 38.681639,22.5703146 39.0136719,22.15625 C39.3457048,21.7421854 39.6171864,21.2792994 39.828125,20.7675781 C40.0390636,20.2558568 40.1445312,19.7304714 40.1445312,19.1914062 C40.1445312,18.8476545 40.0234387,18.5683604 39.78125,18.3535156 C39.5390613,18.1386708 39.2460955,18.03125 38.9023438,18.03125 C38.5039043,18.03125 38.1347673,18.1933578 37.7949219,18.5175781 C37.4550764,18.8417985 37.2187507,19.3359342 37.0859375,20 L36.5585938,19.8125 C36.5898439,19.0546837 36.8378883,18.4648459 37.3027344,18.0429688 C37.7675804,17.6210916 38.3046845,17.4101562 38.9140625,17.4101562 C39.4609402,17.4101562 39.9296855,17.5820295 40.3203125,17.9257812 C40.7109395,18.269533 40.90625,18.7499969 40.90625,19.3671875 C40.90625,19.8750025 40.8281258,20.3691382 40.671875,20.8496094 C40.5156242,21.3300805 40.289064,21.7812479 39.9921875,22.203125 C39.695311,22.6250021 39.41797,22.9863266 39.1601562,23.2871094 C38.9023425,23.5878921 38.5800801,23.9355449 38.1933594,24.3300781 C37.8066387,24.7246113 37.535157,25.0078116 37.3789062,25.1796875 C37.6445326,25.1953126 37.8710928,25.203125 38.0585938,25.203125 C38.2539072,25.203125 38.5585917,25.1972657 38.9726562,25.1855469 C39.3867208,25.1738281 39.6953115,25.1679688 39.8984375,25.1679688 C40.0859384,25.1679688 40.3281235,25.1757812 40.625,25.1914062 Z" id="12" fill="currentColor"></path>
    </g>
</svg>