<?xml version="1.0" encoding="UTF-8"?>
<svg width="48px" height="48px" viewBox="0 0 48 48" version="1.1" xmlns="http://www.w3.org/2000/svg" xmlns:xlink="http://www.w3.org/1999/xlink">
    <!-- Generator: Sketch 52.2 (67145) - http://www.bohemiancoding.com/sketch -->
    <title>icon/trash</title>
    <desc>Created with Sketch.</desc>
    <g id="icon/trash" stroke="none" stroke-width="1" fill="none" fill-rule="evenodd">
        <path d="M16,9 C16,7.8954305 16.8954305,7 18,7 L30,7 C31.1045695,7 32,7.8954305 32,9 L40,9 C41.6568542,9 43,10.3431458 43,12 C43,13.6568542 41.6568542,15 40,15 L8,15 C6.34314575,15 5,13.6568542 5,12 C5,10.3431458 6.34314575,9 8,9 L16,9 Z M38,17 L38,38 C38,40.209139 36.209139,42 34,42 L14,42 C11.790861,42 10,40.209139 10,38 L10,17 L38,17 Z" id="Combined-Shape" fill="currentColor" fill-rule="nonzero"></path>
    </g>
</svg>